<svg id="atom-logo-primary" xmlns="http://www.w3.org/2000/svg" xmlns:xlink="http://www.w3.org/1999/xlink" width="167.971" height="71.283" viewBox="0 0 167.971 71.283">
  <defs>
    <clipPath id="clip-path">
      <rect id="Rectangle_40" data-name="Rectangle 40" width="167.971" height="71.283" fill="none"/>
    </clipPath>
  </defs>
  <g id="Group_10" data-name="Group 10" clip-path="url(#clip-path)">
    <path id="Path_33" data-name="Path 33" d="M304.96,30.439l5.634.13,8.168.188a3.051,3.051,0,0,0,1.378-.067c.574-.305,1.124-.668,1.683-1l7.349-4.365c1.772-1.053,3.578-2.065,5.324-3.162.028-.018.057-.034.086-.051a.489.489,0,0,0,.1-.764l-4.915-3.858L322,11.393l-1.8-1.415c-.488-.383-1.184.3-.69.688l4.915,3.858,7.766,6.1,1.8,1.416.1-.764-4.412,2.621-7.556,4.488L319.88,29.71a1.469,1.469,0,0,0-.218.13c-.136.118.108-.068.179-.032a1.8,1.8,0,0,0-.565-.013l-7.6-.175c-2.2-.051-4.406-.173-6.6-.152-.037,0-.075,0-.112,0a.487.487,0,0,0,0,.973" transform="translate(-205.425 -6.665)" fill="#fff"/>
    <path id="Path_34" data-name="Path 34" d="M36.251,101.2H33.216V65.678L18.383,90.232h-.515L3.035,65.678V101.2H0V61.224h3.78L18.1,84.865,32.414,61.224h3.837Z" transform="translate(0 -41.363)" fill="#fff"/>
    <path id="Path_35" data-name="Path 35" d="M156.748,96.43l-12.37,31.178c-2.176,5.482-6.414,9.193-11.339,8.794v-2.684c3.837.343,6.757-2.513,8.533-6.681l.63-1.542L129.03,96.43h3.093l11.568,25.411,9.965-25.411Z" transform="translate(-87.051 -65.148)" fill="#fff"/>
    <path id="Path_36" data-name="Path 36" d="M232.329,88V98.11c0,2.456,2.119,2.684,5.9,2.456v7.766C227,109.474,223.738,106.1,223.738,98.11V88h-4.581V79.78h4.581V74.356l8.59-2.57V79.78h5.9V88Z" transform="translate(-147.856 -48.499)" fill="#fff"/>
    <path id="Path_37" data-name="Path 37" d="M290.1,62.139a5.154,5.154,0,1,1,5.154,5.139,5.2,5.2,0,0,1-5.154-5.139" transform="translate(-195.715 -38.509)" fill="#01ffb3"/>
    <path id="Path_38" data-name="Path 38" d="M297.03,96.43h0a4.289,4.289,0,0,1,4.3,4.283v24.269h-8.59V100.713a4.289,4.289,0,0,1,4.3-4.283" transform="translate(-197.496 -65.148)" fill="#fff"/>
    <path id="Path_39" data-name="Path 39" d="M338.944,65.288a4.2,4.2,0,1,1,2.947,2.939,4.209,4.209,0,0,1-2.947-2.939" transform="translate(-228.57 -40.536)" fill="#0270f5"/>
    <path id="Path_40" data-name="Path 40" d="M380.992,38.674a3.71,3.71,0,1,1,2.6,2.6,3.72,3.72,0,0,1-2.6-2.6" transform="translate(-256.95 -22.971)" fill="#fff"/>
    <path id="Path_41" data-name="Path 41" d="M338.992,4.674a3.71,3.71,0,0,1,7.16-1.946,3.71,3.71,0,0,1-7.16,1.946" transform="translate(-228.615 0)" fill="#01ffb3"/>
    <path id="Path_42" data-name="Path 42" d="M342.8,96.43h0a4.289,4.289,0,0,1,4.3,4.283V118.94H338.5V100.713a4.289,4.289,0,0,1,4.3-4.283" transform="translate(-228.373 -65.148)" fill="#fff"/>
    <path id="Path_43" data-name="Path 43" d="M427.219,105.785v17.531h-8.59V106.527c0-2.855-1.375-4.682-4.123-4.682-2.864,0-4.467,2-4.467,5.368v16.1h-8.59V106.527c0-2.855-1.375-4.682-4.123-4.682-2.864,0-4.467,2-4.467,5.368v16.1h-8.59V94.764h8.59v2.627c1.317-1.942,3.837-3.426,7.674-3.426a8.528,8.528,0,0,1,7.5,3.769c1.6-2.284,4.238-3.769,8.3-3.769,6.586,0,10.881,4.682,10.881,11.82" transform="translate(-259.249 -63.483)" fill="#fff"/>
  </g>
</svg>
